<?xml version="1.0" encoding="UTF-8" standalone="no"?>
<svg width="776.72" height="441.56" 
     xmlns="http://www.w3.org/2000/svg">
    <style>
        text { font-family: 'Gorton Perfected', sans-serif;
        font-weight: 600;}
    </style>
    <g transform="scale(1.33)">
    <rect x="0" y="0" width="584" height="332" fill="#000000"/>
    <rect x="30" y="30" width="524" height="272" rx="8" fill="#000000"/>
    <g transform="translate(30, 30)">
    <!-- Logo -->
              
            <g transform="translate(42, 20) ">
<circle cx="11.875" cy="9.5" r="19.55" fill="none" stroke="#333333" stroke-width=".7" />
        <g transform="scale(0.028)">
            <path fill="#ffffff" stroke="#333333" stroke-width="3" d="M422.6 261.1c-21.2 0-38.7 35-38.7 95.2 0 60.3 15.6 188.3 38.7 188.3 23.1 0 38.7-128 38.7-188.3 0-60.3-17.5-95.2-38.7-95.2"/>
            <path fill="#ffffff" stroke="#333333" stroke-width="3" transform="matrix(.8869 -.4619 .4619 .8869 -55.651 199.1881)" d="M369.5 176.6h19v73.4h-19z"/>
            <path fill="#ffffff" stroke="#333333" stroke-width="3" transform="matrix(.4618 -.887 .887 .4618 61.4743 527.8238)" d="M429 203.8h73.4v19H429z"/>
            <path fill="#ffffff" stroke="#333333" stroke-width="3" d="M58 90.4C17.2 80.7-6.2 105.3 1.2 154c15.5 101.9 52 164.5 129.9 183.5 59.3 14.4 221.8 20 221.8 20-33.3-162.4-195.1-243.4-294.9-267.1"/>
            <path fill="#ffffff" stroke="#333333" stroke-width="3" d="M355 389.5s-71.1-5.6-119-1.6c-61 5.1-98 25.6-98 96.2 0 103.5 99.5 150.2 150.4 147.5 20.9-1.1 56.9-44.1 69.5-77.5 8.3-21.9 11.9-42.3 8.9-73.9-1.8-19.4-11.8-90.7-11.8-90.7"/>
            <path fill="#ffffff" stroke="#333333" stroke-width="3" d="M786.7 90.4c-99.8 23.7-261.7 104.7-295 267.1 0 0 162.6-5.6 221.8-20 77.9-19 114.4-81.6 129.9-183.5 7.5-48.7-15.9-73.3-56.7-63.6"/>
            <path fill="#ffffff" stroke="#333333" stroke-width="3" d="M608.7 387.9c-47.8-4-119 1.6-119 1.6s-10 71.4-11.8 90.7c-3 31.6.7 51.9 8.9 73.9 12.6 33.4 48.5 76.4 69.5 77.5 50.8 2.7 150.4-44 150.4-147.5 0-70.6-37-91.1-98-96.2"/>
        </g>
        </g>
    
        <g transform="translate(394.0, 16.0)">
            <path d="M31.98,28.85c-.16,1.71-1.36,2.98-3.09,3.12-3.97.37-8.43.59-12.42.6h-.02c-4.13-.02-8.31-.2-12.42-.6h.03c-1.7-.16-2.99-1.36-3.11-3.09h-.01c-.37-3.97-.6-8.43-.59-12.42-.01-4.14.18-8.32.6-12.43v.03c.17-1.72,1.33-2.95,3.08-3.11h0c4.13-.4,8.28-.6,12.43-.6h0c4.13,0,8.31.19,12.42.6h-.03c1.68.12,3.02,1.39,3.1,3.09h.02c.4,4.12.6,8.26.6,12.41h-.01c0,4.14-.18,8.32-.6,12.43" fill="none" stroke="#333333" stroke-width=".7"/>
            <g transform="translate(23.66,6.25) scale(0.3)" fill="none" stroke="#ffffff" color="#ffffff" text-anchor="start" stroke-width="2">
                <path d="m6.2286 6v12" stroke-linecap="round"/>
<path rx="1" d="m18.8 6-9 6 9 6z" stroke-linejoin="round"/>
            </g>
        </g>
        <g transform="translate(436.0, 16.0)">
            <path d="M31.98,28.85c-.16,1.71-1.36,2.98-3.09,3.12-3.97.37-8.43.59-12.42.6h-.02c-4.13-.02-8.31-.2-12.42-.6h.03c-1.7-.16-2.99-1.36-3.11-3.09h-.01c-.37-3.97-.6-8.43-.59-12.42-.01-4.14.18-8.32.6-12.43v.03c.17-1.72,1.33-2.95,3.08-3.11h0c4.13-.4,8.28-.6,12.43-.6h0c4.13,0,8.31.19,12.42.6h-.03c1.68.12,3.02,1.39,3.1,3.09h.02c.4,4.12.6,8.26.6,12.41h-.01c0,4.14-.18,8.32-.6,12.43" fill="none" stroke="#333333" stroke-width=".7"/>
            <g transform="translate(23.66,6.25) scale(0.3)" fill="none" stroke="#ffffff" color="#ffffff" text-anchor="start" stroke-width="2">
                <path d="m18.8 6v12" stroke-linecap="round"/>
<path rx="1" d="m6.2286 6 9 6-9 6z" stroke-linejoin="round"/>
            </g>
        </g>
        <g transform="translate(478.0, 10)">
                <path d="M39.45,19.9C39.45,9.1,30.7.35,19.9.35S.35,9.1.35,19.9s8.75,19.55,19.55,19.55,19.55-8.75,19.55-19.55" fill="none" stroke="#333333" stroke-width=".7"/>
                <path id="curve_0_11" fill="none" d="M-10,0 A10,10 0 0,1 10,0" />
               
                <g transform="translate(20.0, 18.0)">
                 <text fill="#ffffff" font-size="6.25">
                    <textPath href="#curve_0_11" startOffset="50%" text-anchor="middle">-VOL+</textPath>
                </text>
                </g>
                <g transform="translate(13, 15) scale(0.5)" fill="none" stroke="#ffffff" stroke-width="1">
                    <g stroke-linecap="round" stroke-linejoin="round">
<path rx="1" d="m7 6v12l7-6z"/>
<path d="m16.2 6v12m3-12v12"/>
</g>
                </g>
            </g>
        <g transform="translate(16.0, 58.0)">
            <path d="M31.98,28.85c-.16,1.71-1.36,2.98-3.09,3.12-3.97.37-8.43.59-12.42.6h-.02c-4.13-.02-8.31-.2-12.42-.6h.03c-1.7-.16-2.99-1.36-3.11-3.09h-.01c-.37-3.97-.6-8.43-.59-12.42-.01-4.14.18-8.32.6-12.43v.03c.17-1.72,1.33-2.95,3.08-3.11h0c4.13-.4,8.28-.6,12.43-.6h0c4.13,0,8.31.19,12.42.6h-.03c1.68.12,3.02,1.39,3.1,3.09h.02c.4,4.12.6,8.26.6,12.41h-.01c0,4.14-.18,8.32-.6,12.43" fill="none" stroke="#333333" stroke-width=".7"/>
            <text x="3" y="29" fill="#ffffff" font-size="6.25" text-anchor="start">Esc</text>
            <text x="29" y="9.25" fill="#ff944d" font-size="6.25" text-anchor="end">Esc</text>
            <text x="3" y="9.25" fill="#66ff66" font-size="6.25" text-anchor="start">F1</text>
        </g>
        <g transform="translate(58.0, 58.0)">
            <path d="M31.98,28.85c-.16,1.71-1.36,2.98-3.09,3.12-3.97.37-8.43.59-12.42.6h-.02c-4.13-.02-8.31-.2-12.42-.6h.03c-1.7-.16-2.99-1.36-3.11-3.09h-.01c-.37-3.97-.6-8.43-.59-12.42-.01-4.14.18-8.32.6-12.43v.03c.17-1.72,1.33-2.95,3.08-3.11h0c4.13-.4,8.28-.6,12.43-.6h0c4.13,0,8.31.19,12.42.6h-.03c1.68.12,3.02,1.39,3.1,3.09h.02c.4,4.12.6,8.26.6,12.41h-.01c0,4.14-.18,8.32-.6,12.43" fill="none" stroke="#333333" stroke-width=".7"/>
            <text x="3" y="29" fill="#ffffff" font-size="6.25" text-anchor="start">1</text>
            <text x="29" y="9.25" fill="#ff944d" font-size="6.25" text-anchor="end">F1</text>
            <text x="3" y="9.25" fill="#66ff66" font-size="6.25" text-anchor="start">F2</text>
        </g>
        <g transform="translate(100.0, 58.0)">
            <path d="M31.98,28.85c-.16,1.71-1.36,2.98-3.09,3.12-3.97.37-8.43.59-12.42.6h-.02c-4.13-.02-8.31-.2-12.42-.6h.03c-1.7-.16-2.99-1.36-3.11-3.09h-.01c-.37-3.97-.6-8.43-.59-12.42-.01-4.14.18-8.32.6-12.43v.03c.17-1.72,1.33-2.95,3.08-3.11h0c4.13-.4,8.28-.6,12.43-.6h0c4.13,0,8.31.19,12.42.6h-.03c1.68.12,3.02,1.39,3.1,3.09h.02c.4,4.12.6,8.26.6,12.41h-.01c0,4.14-.18,8.32-.6,12.43" fill="none" stroke="#333333" stroke-width=".7"/>
            <text x="3" y="29" fill="#ffffff" font-size="6.25" text-anchor="start">2</text>
            <text x="29" y="9.25" fill="#ff944d" font-size="6.25" text-anchor="end">F2</text>
            <text x="3" y="9.25" fill="#66ff66" font-size="6.25" text-anchor="start">F3</text>
        </g>
        <g transform="translate(142.0, 58.0)">
            <path d="M31.98,28.85c-.16,1.71-1.36,2.98-3.09,3.12-3.97.37-8.43.59-12.42.6h-.02c-4.13-.02-8.31-.2-12.42-.6h.03c-1.7-.16-2.99-1.36-3.11-3.09h-.01c-.37-3.97-.6-8.43-.59-12.42-.01-4.14.18-8.32.6-12.43v.03c.17-1.72,1.33-2.95,3.08-3.11h0c4.13-.4,8.28-.6,12.43-.6h0c4.13,0,8.31.19,12.42.6h-.03c1.68.12,3.02,1.39,3.1,3.09h.02c.4,4.12.6,8.26.6,12.41h-.01c0,4.14-.18,8.32-.6,12.43" fill="none" stroke="#333333" stroke-width=".7"/>
            <text x="3" y="29" fill="#ffffff" font-size="6.25" text-anchor="start">3</text>
            <text x="29" y="9.25" fill="#ff944d" font-size="6.25" text-anchor="end">F3</text>
            <text x="3" y="9.25" fill="#66ff66" font-size="6.25" text-anchor="start">F4</text>
        </g>
        <g transform="translate(184.0, 58.0)">
            <path d="M31.98,28.85c-.16,1.71-1.36,2.98-3.09,3.12-3.97.37-8.43.59-12.42.6h-.02c-4.13-.02-8.31-.2-12.42-.6h.03c-1.7-.16-2.99-1.36-3.11-3.09h-.01c-.37-3.97-.6-8.43-.59-12.42-.01-4.14.18-8.32.6-12.43v.03c.17-1.72,1.33-2.95,3.08-3.11h0c4.13-.4,8.28-.6,12.43-.6h0c4.13,0,8.31.19,12.42.6h-.03c1.68.12,3.02,1.39,3.1,3.09h.02c.4,4.12.6,8.26.6,12.41h-.01c0,4.14-.18,8.32-.6,12.43" fill="none" stroke="#333333" stroke-width=".7"/>
            <text x="3" y="29" fill="#ffffff" font-size="6.25" text-anchor="start">4</text>
            <text x="29" y="9.25" fill="#ff944d" font-size="6.25" text-anchor="end">F4</text>
            <text x="3" y="9.25" fill="#66ff66" font-size="6.25" text-anchor="start">F4</text>
        </g>
        <g transform="translate(226.0, 58.0)">
            <path d="M31.98,28.85c-.16,1.71-1.36,2.98-3.09,3.12-3.97.37-8.43.59-12.42.6h-.02c-4.13-.02-8.31-.2-12.42-.6h.03c-1.7-.16-2.99-1.36-3.11-3.09h-.01c-.37-3.97-.6-8.43-.59-12.42-.01-4.14.18-8.32.6-12.43v.03c.17-1.72,1.33-2.95,3.08-3.11h0c4.13-.4,8.28-.6,12.43-.6h0c4.13,0,8.31.19,12.42.6h-.03c1.68.12,3.02,1.39,3.1,3.09h.02c.4,4.12.6,8.26.6,12.41h-.01c0,4.14-.18,8.32-.6,12.43" fill="none" stroke="#333333" stroke-width=".7"/>
            <text x="3" y="29" fill="#ffffff" font-size="6.25" text-anchor="start">5</text>
            <text x="29" y="9.25" fill="#ff944d" font-size="6.25" text-anchor="end">F5</text>
            <text x="3" y="9.25" fill="#66ff66" font-size="6.25" text-anchor="start">F5</text>
        </g>
        <g transform="translate(268.0, 58.0)">
            <path d="M31.98,28.85c-.16,1.71-1.36,2.98-3.09,3.12-3.97.37-8.43.59-12.42.6h-.02c-4.13-.02-8.31-.2-12.42-.6h.03c-1.7-.16-2.99-1.36-3.11-3.09h-.01c-.37-3.97-.6-8.43-.59-12.42-.01-4.14.18-8.32.6-12.43v.03c.17-1.72,1.33-2.95,3.08-3.11h0c4.13-.4,8.28-.6,12.43-.6h0c4.13,0,8.31.19,12.42.6h-.03c1.68.12,3.02,1.39,3.1,3.09h.02c.4,4.12.6,8.26.6,12.41h-.01c0,4.14-.18,8.32-.6,12.43" fill="none" stroke="#333333" stroke-width=".7"/>
            <text x="3" y="29" fill="#ffffff" font-size="6.25" text-anchor="start">6</text>
            <text x="29" y="9.25" fill="#ff944d" font-size="6.25" text-anchor="end">F6</text>
            <text x="3" y="9.25" fill="#66ff66" font-size="6.25" text-anchor="start">F6</text>
        </g>
        <g transform="translate(310.0, 58.0)">
            <path d="M31.98,28.85c-.16,1.71-1.36,2.98-3.09,3.12-3.97.37-8.43.59-12.42.6h-.02c-4.13-.02-8.31-.2-12.42-.6h.03c-1.7-.16-2.99-1.36-3.11-3.09h-.01c-.37-3.97-.6-8.43-.59-12.42-.01-4.14.18-8.32.6-12.43v.03c.17-1.72,1.33-2.95,3.08-3.11h0c4.13-.4,8.28-.6,12.43-.6h0c4.13,0,8.31.19,12.42.6h-.03c1.68.12,3.02,1.39,3.1,3.09h.02c.4,4.12.6,8.26.6,12.41h-.01c0,4.14-.18,8.32-.6,12.43" fill="none" stroke="#333333" stroke-width=".7"/>
            <text x="3" y="29" fill="#ffffff" font-size="6.25" text-anchor="start">7</text>
            <text x="29" y="9.25" fill="#ff944d" font-size="6.25" text-anchor="end">F7</text>
            <text x="3" y="9.25" fill="#66ff66" font-size="6.25" text-anchor="start">F7</text>
        </g>
        <g transform="translate(352.0, 58.0)">
            <path d="M31.98,28.85c-.16,1.71-1.36,2.98-3.09,3.12-3.97.37-8.43.59-12.42.6h-.02c-4.13-.02-8.31-.2-12.42-.6h.03c-1.7-.16-2.99-1.36-3.11-3.09h-.01c-.37-3.97-.6-8.43-.59-12.42-.01-4.14.18-8.32.6-12.43v.03c.17-1.72,1.33-2.95,3.08-3.11h0c4.13-.4,8.28-.6,12.43-.6h0c4.13,0,8.31.19,12.42.6h-.03c1.68.12,3.02,1.39,3.1,3.09h.02c.4,4.12.6,8.26.6,12.41h-.01c0,4.14-.18,8.32-.6,12.43" fill="none" stroke="#333333" stroke-width=".7"/>
            <text x="3" y="29" fill="#ffffff" font-size="6.25" text-anchor="start">8</text>
            <text x="29" y="9.25" fill="#ff944d" font-size="6.25" text-anchor="end">F8</text>
            <text x="3" y="9.25" fill="#66ff66" font-size="6.25" text-anchor="start">F8</text>
        </g>
        <g transform="translate(394.0, 58.0)">
            <path d="M31.98,28.85c-.16,1.71-1.36,2.98-3.09,3.12-3.97.37-8.43.59-12.42.6h-.02c-4.13-.02-8.31-.2-12.42-.6h.03c-1.7-.16-2.99-1.36-3.11-3.09h-.01c-.37-3.97-.6-8.43-.59-12.42-.01-4.14.18-8.32.6-12.43v.03c.17-1.72,1.33-2.95,3.08-3.11h0c4.13-.4,8.28-.6,12.43-.6h0c4.13,0,8.31.19,12.42.6h-.03c1.68.12,3.02,1.39,3.1,3.09h.02c.4,4.12.6,8.26.6,12.41h-.01c0,4.14-.18,8.32-.6,12.43" fill="none" stroke="#333333" stroke-width=".7"/>
            <text x="3" y="29" fill="#ffffff" font-size="6.25" text-anchor="start">9</text>
            <text x="29" y="9.25" fill="#ff944d" font-size="6.25" text-anchor="end">F9</text>
            <text x="3" y="9.25" fill="#66ff66" font-size="6.25" text-anchor="start">F9</text>
        </g>
        <g transform="translate(436.0, 58.0)">
            <path d="M31.98,28.85c-.16,1.71-1.36,2.98-3.09,3.12-3.97.37-8.43.59-12.42.6h-.02c-4.13-.02-8.31-.2-12.42-.6h.03c-1.7-.16-2.99-1.36-3.11-3.09h-.01c-.37-3.97-.6-8.43-.59-12.42-.01-4.14.18-8.32.6-12.43v.03c.17-1.72,1.33-2.95,3.08-3.11h0c4.13-.4,8.28-.6,12.43-.6h0c4.13,0,8.31.19,12.42.6h-.03c1.68.12,3.02,1.39,3.1,3.09h.02c.4,4.12.6,8.26.6,12.41h-.01c0,4.14-.18,8.32-.6,12.43" fill="none" stroke="#333333" stroke-width=".7"/>
            <text x="3" y="29" fill="#ffffff" font-size="6.25" text-anchor="start">0</text>
            <text x="29" y="9.25" fill="#ff944d" font-size="6.25" text-anchor="end">F12</text>
            <text x="3" y="9.25" fill="#66ff66" font-size="6.25" text-anchor="start">F10</text>
        </g>
        <g transform="translate(478.0, 58.0)">
            <path d="M31.98,28.85c-.16,1.71-1.36,2.98-3.09,3.12-3.97.37-8.43.59-12.42.6h-.02c-4.13-.02-8.31-.2-12.42-.6h.03c-1.7-.16-2.99-1.36-3.11-3.09h-.01c-.37-3.97-.6-8.43-.59-12.42-.01-4.14.18-8.32.6-12.43v.03c.17-1.72,1.33-2.95,3.08-3.11h0c4.13-.4,8.28-.6,12.43-.6h0c4.13,0,8.31.19,12.42.6h-.03c1.68.12,3.02,1.39,3.1,3.09h.02c.4,4.12.6,8.26.6,12.41h-.01c0,4.14-.18,8.32-.6,12.43" fill="none" stroke="#333333" stroke-width=".7"/>
            <text x="3" y="29" fill="#ffffff" font-size="6.25" text-anchor="start">-</text>
            <text x="29" y="9.25" fill="#ff944d" font-size="6.25" text-anchor="end">=</text>
            <text x="3" y="9.25" fill="#66ff66" font-size="6.25" text-anchor="start">F11</text>
        </g>
        <g transform="translate(16.0, 100.0)">
            <path d="M31.98,28.85c-.16,1.71-1.36,2.98-3.09,3.12-3.97.37-8.43.59-12.42.6h-.02c-4.13-.02-8.31-.2-12.42-.6h.03c-1.7-.16-2.99-1.36-3.11-3.09h-.01c-.37-3.97-.6-8.43-.59-12.42-.01-4.14.18-8.32.6-12.43v.03c.17-1.72,1.33-2.95,3.08-3.11h0c4.13-.4,8.28-.6,12.43-.6h0c4.13,0,8.31.19,12.42.6h-.03c1.68.12,3.02,1.39,3.1,3.09h.02c.4,4.12.6,8.26.6,12.41h-.01c0,4.14-.18,8.32-.6,12.43" fill="none" stroke="#333333" stroke-width=".7"/>
            <text x="3" y="29" fill="#ffffff" font-size="6.25" text-anchor="start">Tab</text>
            <text x="29" y="9.25" fill="#ff944d" font-size="6.25" text-anchor="end">`</text>
            <g transform="translate(3,6.25) scale(0.3)" fill="none" stroke="#66ff66" color="#66ff66" text-anchor="start" stroke-width="2">
                <path d="M8,4 L16,4 L16,8 L18,8 L18,16 L14,16 L14,20 L10,20 L10,16 L6,16 L6,8 L8,8 Z" rx="1"/>
<path d="M10,4 L10,8 M14,4 L14,8" stroke-width="1"/>
            </g>
        </g>
        <g transform="translate(58.0, 100.0)">
            <path d="M31.98,28.85c-.16,1.71-1.36,2.98-3.09,3.12-3.97.37-8.43.59-12.42.6h-.02c-4.13-.02-8.31-.2-12.42-.6h.03c-1.7-.16-2.99-1.36-3.11-3.09h-.01c-.37-3.97-.6-8.43-.59-12.42-.01-4.14.18-8.32.6-12.43v.03c.17-1.72,1.33-2.95,3.08-3.11h0c4.13-.4,8.28-.6,12.43-.6h0c4.13,0,8.31.19,12.42.6h-.03c1.68.12,3.02,1.39,3.1,3.09h.02c.4,4.12.6,8.26.6,12.41h-.01c0,4.14-.18,8.32-.6,12.43" fill="none" stroke="#333333" stroke-width=".7"/>
            <text x="3" y="29" fill="#ffffff" font-size="6.25" text-anchor="start">Q</text>
            <g transform="translate(3,4.015000000000001) scale(0.3)" fill="none" stroke="#66ff66" stroke-width="2">
                 <path d="M7.32,8.1l9.35,7.8-4.68,3.9V4.2l4.68,3.9-9.35,7.8"/>
            </g>
            <text x="9.209" y="9.25" fill="#66ff66" font-size="6.25" text-anchor="start">1</text>
        </g>
        <g transform="translate(100.0, 100.0)">
            <path d="M31.98,28.85c-.16,1.71-1.36,2.98-3.09,3.12-3.97.37-8.43.59-12.42.6h-.02c-4.13-.02-8.31-.2-12.42-.6h.03c-1.7-.16-2.99-1.36-3.11-3.09h-.01c-.37-3.97-.6-8.43-.59-12.42-.01-4.14.18-8.32.6-12.43v.03c.17-1.72,1.33-2.95,3.08-3.11h0c4.13-.4,8.28-.6,12.43-.6h0c4.13,0,8.31.19,12.42.6h-.03c1.68.12,3.02,1.39,3.1,3.09h.02c.4,4.12.6,8.26.6,12.41h-.01c0,4.14-.18,8.32-.6,12.43" fill="none" stroke="#333333" stroke-width=".7"/>
            <text x="3" y="29" fill="#ffffff" font-size="6.25" text-anchor="start">W</text>
            <g transform="translate(18.406400000000005,2.6500000000000004) scale(0.3)" fill="none" stroke="#ff944d" stroke-width="2">
                <path d="m6.0006 9.9714v10c0 4 12 4 12 0v-10s0-4-6-4c-6 0-6 4-6 4z"/>
<path d="m11.656 6.8328s0-3 1-4 2-2-1-2" stroke-width="1.5"/>
            </g>
            <text x="25.703200000000002" y="9.25" fill="#ff944d" font-size="6.25" text-anchor="start">↑</text>
            <g transform="translate(3,4.015000000000001) scale(0.3)" fill="none" stroke="#66ff66" stroke-width="2">
                 <path d="M7.32,8.1l9.35,7.8-4.68,3.9V4.2l4.68,3.9-9.35,7.8"/>
            </g>
            <text x="9.209" y="9.25" fill="#66ff66" font-size="6.25" text-anchor="start">2</text>
        </g>
        <g transform="translate(142.0, 100.0)">
            <path d="M31.98,28.85c-.16,1.71-1.36,2.98-3.09,3.12-3.97.37-8.43.59-12.42.6h-.02c-4.13-.02-8.31-.2-12.42-.6h.03c-1.7-.16-2.99-1.36-3.11-3.09h-.01c-.37-3.97-.6-8.43-.59-12.42-.01-4.14.18-8.32.6-12.43v.03c.17-1.72,1.33-2.95,3.08-3.11h0c4.13-.4,8.28-.6,12.43-.6h0c4.13,0,8.31.19,12.42.6h-.03c1.68.12,3.02,1.39,3.1,3.09h.02c.4,4.12.6,8.26.6,12.41h-.01c0,4.14-.18,8.32-.6,12.43" fill="none" stroke="#333333" stroke-width=".7"/>
            <text x="3" y="29" fill="#ffffff" font-size="6.25" text-anchor="start">E</text>
            <g transform="translate(3,4.015000000000001) scale(0.3)" fill="none" stroke="#66ff66" stroke-width="2">
                 <path d="M7.32,8.1l9.35,7.8-4.68,3.9V4.2l4.68,3.9-9.35,7.8"/>
            </g>
            <text x="9.209" y="9.25" fill="#66ff66" font-size="6.25" text-anchor="start">3</text>
        </g>
        <g transform="translate(184.0, 100.0)">
            <path d="M31.98,28.85c-.16,1.71-1.36,2.98-3.09,3.12-3.97.37-8.43.59-12.42.6h-.02c-4.13-.02-8.31-.2-12.42-.6h.03c-1.7-.16-2.99-1.36-3.11-3.09h-.01c-.37-3.97-.6-8.43-.59-12.42-.01-4.14.18-8.32.6-12.43v.03c.17-1.72,1.33-2.95,3.08-3.11h0c4.13-.4,8.28-.6,12.43-.6h0c4.13,0,8.31.19,12.42.6h-.03c1.68.12,3.02,1.39,3.1,3.09h.02c.4,4.12.6,8.26.6,12.41h-.01c0,4.14-.18,8.32-.6,12.43" fill="none" stroke="#333333" stroke-width=".7"/>
            <text x="3" y="29" fill="#ffffff" font-size="6.25" text-anchor="start">R</text>
            <g transform="translate(21.3032,6.25) scale(0.3)" fill="none" stroke="#ff944d" color="#ff944d" text-anchor="start" stroke-width="2">
                <g transform="translate(-17.656,0)">
<path d="m6.0006 9.9714v10c0 4 12 4 12 0v-10s0-4-6-4c-6 0-6 4-6 4z"/>
<path d="m11.656 6.8328s0-3 1-4 2-2-1-2" stroke-width="1.5"/>
</g>
<g transform="translate(6,0)">
    <rect x="4" y="4" width="18" height="18" fill="none" stroke="currentColor"/>
    <rect x="4" y="4" width="8" height="8" fill="currentColor"/>
</g>
            </g>
            <g transform="translate(3,4.015000000000001) scale(0.3)" fill="none" stroke="#66ff66" stroke-width="2">
                 <path d="M7.32,8.1l9.35,7.8-4.68,3.9V4.2l4.68,3.9-9.35,7.8"/>
            </g>
            <text x="9.209" y="9.25" fill="#66ff66" font-size="6.25" text-anchor="start">4</text>
        </g>
        <g transform="translate(226.0, 100.0)">
            <path d="M31.98,28.85c-.16,1.71-1.36,2.98-3.09,3.12-3.97.37-8.43.59-12.42.6h-.02c-4.13-.02-8.31-.2-12.42-.6h.03c-1.7-.16-2.99-1.36-3.11-3.09h-.01c-.37-3.97-.6-8.43-.59-12.42-.01-4.14.18-8.32.6-12.43v.03c.17-1.72,1.33-2.95,3.08-3.11h0c4.13-.4,8.28-.6,12.43-.6h0c4.13,0,8.31.19,12.42.6h-.03c1.68.12,3.02,1.39,3.1,3.09h.02c.4,4.12.6,8.26.6,12.41h-.01c0,4.14-.18,8.32-.6,12.43" fill="none" stroke="#333333" stroke-width=".7"/>
            <text x="3" y="29" fill="#ffffff" font-size="6.25" text-anchor="start">T</text>
            <g transform="translate(21.3032,6.25) scale(0.3)" fill="none" stroke="#ff944d" color="#ff944d" text-anchor="start" stroke-width="2">
                <g transform="translate(-17.656,0)">
<path d="m6.0006 9.9714v10c0 4 12 4 12 0v-10s0-4-6-4c-6 0-6 4-6 4z"/>
<path d="m11.656 6.8328s0-3 1-4 2-2-1-2" stroke-width="1.5"/>
</g>
<g transform="translate(6,0)">
    <rect x="4" y="4" width="18" height="18" fill="none" stroke="currentColor"/>
    <rect x="14" y="4" width="8" height="8" fill="currentColor"/>
</g>
            </g>
            <g transform="translate(3,6.25) scale(0.3)" fill="none" stroke="#66ff66" color="#66ff66" text-anchor="start" stroke-width="2">
                <g transform="translate(0,0)">
    <path d="M7.32,8.1l9.35,7.8-4.68,3.9V4.2l4.68,3.9-9.35,7.8"/>
    <path d="M28,9 a5,5 0 1,0 10,0 a5,5 0 1,0 -10,0 M28,12 L22,17" />
</g>
            </g>
        </g>
        <g transform="translate(268.0, 100.0)">
            <path d="M31.98,28.85c-.16,1.71-1.36,2.98-3.09,3.12-3.97.37-8.43.59-12.42.6h-.02c-4.13-.02-8.31-.2-12.42-.6h.03c-1.7-.16-2.99-1.36-3.11-3.09h-.01c-.37-3.97-.6-8.43-.59-12.42-.01-4.14.18-8.32.6-12.43v.03c.17-1.72,1.33-2.95,3.08-3.11h0c4.13-.4,8.28-.6,12.43-.6h0c4.13,0,8.31.19,12.42.6h-.03c1.68.12,3.02,1.39,3.1,3.09h.02c.4,4.12.6,8.26.6,12.41h-.01c0,4.14-.18,8.32-.6,12.43" fill="none" stroke="#333333" stroke-width=".7"/>
            <text x="3" y="29" fill="#ffffff" font-size="6.25" text-anchor="start">Y</text>
            <text x="29" y="9.25" fill="#ff944d" font-size="6.25" text-anchor="end">Home</text>
        </g>
        <g transform="translate(310.0, 100.0)">
            <path d="M31.98,28.85c-.16,1.71-1.36,2.98-3.09,3.12-3.97.37-8.43.59-12.42.6h-.02c-4.13-.02-8.31-.2-12.42-.6h.03c-1.7-.16-2.99-1.36-3.11-3.09h-.01c-.37-3.97-.6-8.43-.59-12.42-.01-4.14.18-8.32.6-12.43v.03c.17-1.72,1.33-2.95,3.08-3.11h0c4.13-.4,8.28-.6,12.43-.6h0c4.13,0,8.31.19,12.42.6h-.03c1.68.12,3.02,1.39,3.1,3.09h.02c.4,4.12.6,8.26.6,12.41h-.01c0,4.14-.18,8.32-.6,12.43" fill="none" stroke="#333333" stroke-width=".7"/>
            <text x="3" y="29" fill="#ffffff" font-size="6.25" text-anchor="start">U</text>
            <text x="29" y="9.25" fill="#ff944d" font-size="6.25" text-anchor="end">End</text>
        </g>
        <g transform="translate(352.0, 100.0)">
            <path d="M31.98,28.85c-.16,1.71-1.36,2.98-3.09,3.12-3.97.37-8.43.59-12.42.6h-.02c-4.13-.02-8.31-.2-12.42-.6h.03c-1.7-.16-2.99-1.36-3.11-3.09h-.01c-.37-3.97-.6-8.43-.59-12.42-.01-4.14.18-8.32.6-12.43v.03c.17-1.72,1.33-2.95,3.08-3.11h0c4.13-.4,8.28-.6,12.43-.6h0c4.13,0,8.31.19,12.42.6h-.03c1.68.12,3.02,1.39,3.1,3.09h.02c.4,4.12.6,8.26.6,12.41h-.01c0,4.14-.18,8.32-.6,12.43" fill="none" stroke="#333333" stroke-width=".7"/>
            <text x="3" y="29" fill="#ffffff" font-size="6.25" text-anchor="start">I</text>
            <text x="29" y="9.25" fill="#ff944d" font-size="6.25" text-anchor="end">}</text>
        </g>
        <g transform="translate(394.0, 100.0)">
            <path d="M31.98,28.85c-.16,1.71-1.36,2.98-3.09,3.12-3.97.37-8.43.59-12.42.6h-.02c-4.13-.02-8.31-.2-12.42-.6h.03c-1.7-.16-2.99-1.36-3.11-3.09h-.01c-.37-3.97-.6-8.43-.59-12.42-.01-4.14.18-8.32.6-12.43v.03c.17-1.72,1.33-2.95,3.08-3.11h0c4.13-.4,8.28-.6,12.43-.6h0c4.13,0,8.31.19,12.42.6h-.03c1.68.12,3.02,1.39,3.1,3.09h.02c.4,4.12.6,8.26.6,12.41h-.01c0,4.14-.18,8.32-.6,12.43" fill="none" stroke="#333333" stroke-width=".7"/>
            <text x="3" y="29" fill="#ffffff" font-size="6.25" text-anchor="start">O</text>
            <text x="29" y="9.25" fill="#ff944d" font-size="6.25" text-anchor="end">[</text>
        </g>
        <g transform="translate(436.0, 100.0)">
            <path d="M31.98,28.85c-.16,1.71-1.36,2.98-3.09,3.12-3.97.37-8.43.59-12.42.6h-.02c-4.13-.02-8.31-.2-12.42-.6h.03c-1.7-.16-2.99-1.36-3.11-3.09h-.01c-.37-3.97-.6-8.43-.59-12.42-.01-4.14.18-8.32.6-12.43v.03c.17-1.72,1.33-2.95,3.08-3.11h0c4.13-.4,8.28-.6,12.43-.6h0c4.13,0,8.31.19,12.42.6h-.03c1.68.12,3.02,1.39,3.1,3.09h.02c.4,4.12.6,8.26.6,12.41h-.01c0,4.14-.18,8.32-.6,12.43" fill="none" stroke="#333333" stroke-width=".7"/>
            <text x="3" y="29" fill="#ffffff" font-size="6.25" text-anchor="start">P</text>
            <text x="29" y="9.25" fill="#ff944d" font-size="6.25" text-anchor="end">]</text>
        </g>
        <g transform="translate(478.0, 100.0)">
            <path d="M31.98,28.85c-.16,1.71-1.36,2.98-3.09,3.12-3.97.37-8.43.59-12.42.6h-.02c-4.13-.02-8.31-.2-12.42-.6h.03c-1.7-.16-2.99-1.36-3.11-3.09h-.01c-.37-3.97-.6-8.43-.59-12.42-.01-4.14.18-8.32.6-12.43v.03c.17-1.72,1.33-2.95,3.08-3.11h0c4.13-.4,8.28-.6,12.43-.6h0c4.13,0,8.31.19,12.42.6h-.03c1.68.12,3.02,1.39,3.1,3.09h.02c.4,4.12.6,8.26.6,12.41h-.01c0,4.14-.18,8.32-.6,12.43" fill="none" stroke="#333333" stroke-width=".7"/>
            <text x="3" y="29" fill="#ffffff" font-size="6.25" text-anchor="start">Bksp</text>
            <text x="29" y="9.25" fill="#ff944d" font-size="6.25" text-anchor="end">Del</text>
            <text x="3" y="9.25" fill="#66ff66" font-size="6.25" text-anchor="start">F12</text>
        </g>
        <g transform="translate(16.0, 142.0)">
            <path d="M31.98,28.85c-.16,1.71-1.36,2.98-3.09,3.12-3.97.37-8.43.59-12.42.6h-.02c-4.13-.02-8.31-.2-12.42-.6h.03c-1.7-.16-2.99-1.36-3.11-3.09h-.01c-.37-3.97-.6-8.43-.59-12.42-.01-4.14.18-8.32.6-12.43v.03c.17-1.72,1.33-2.95,3.08-3.11h0c4.13-.4,8.28-.6,12.43-.6h0c4.13,0,8.31.19,12.42.6h-.03c1.68.12,3.02,1.39,3.1,3.09h.02c.4,4.12.6,8.26.6,12.41h-.01c0,4.14-.18,8.32-.6,12.43" fill="none" stroke="#333333" stroke-width=".7"/>
            <text x="3" y="29" fill="#ffffff" font-size="6.25" text-anchor="start">`</text>
            <text x="29" y="9.25" fill="#ff944d" font-size="6.25" text-anchor="end">Caps</text>
        </g>
        <g transform="translate(58.0, 142.0)">
            <path d="M31.98,28.85c-.16,1.71-1.36,2.98-3.09,3.12-3.97.37-8.43.59-12.42.6h-.02c-4.13-.02-8.31-.2-12.42-.6h.03c-1.7-.16-2.99-1.36-3.11-3.09h-.01c-.37-3.97-.6-8.43-.59-12.42-.01-4.14.18-8.32.6-12.43v.03c.17-1.72,1.33-2.95,3.08-3.11h0c4.13-.4,8.28-.6,12.43-.6h0c4.13,0,8.31.19,12.42.6h-.03c1.68.12,3.02,1.39,3.1,3.09h.02c.4,4.12.6,8.26.6,12.41h-.01c0,4.14-.18,8.32-.6,12.43" fill="none" stroke="#333333" stroke-width=".7"/>
            <text x="3" y="29" fill="#ffffff" font-size="6.25" text-anchor="start">A</text>
            <g transform="translate(18.406400000000005,2.6500000000000004) scale(0.3)" fill="none" stroke="#ff944d" stroke-width="2">
                <path d="m6.0006 9.9714v10c0 4 12 4 12 0v-10s0-4-6-4c-6 0-6 4-6 4z"/>
<path d="m11.656 6.8328s0-3 1-4 2-2-1-2" stroke-width="1.5"/>
            </g>
            <text x="25.703200000000002" y="9.25" fill="#ff944d" font-size="6.25" text-anchor="start">←</text>
            <g transform="translate(3,6.25) scale(0.3)" fill="none" stroke="#66ff66" color="#66ff66" text-anchor="start" stroke-width="2">
                <path d="m6.2286 6v12" stroke-linecap="round"/>
<path rx="1" d="m18.8 6-9 6 9 6z" stroke-linejoin="round"/>
            </g>
        </g>
        <g transform="translate(100.0, 142.0)">
            <path d="M31.98,28.85c-.16,1.71-1.36,2.98-3.09,3.12-3.97.37-8.43.59-12.42.6h-.02c-4.13-.02-8.31-.2-12.42-.6h.03c-1.7-.16-2.99-1.36-3.11-3.09h-.01c-.37-3.97-.6-8.43-.59-12.42-.01-4.14.18-8.32.6-12.43v.03c.17-1.72,1.33-2.95,3.08-3.11h0c4.13-.4,8.28-.6,12.43-.6h0c4.13,0,8.31.19,12.42.6h-.03c1.68.12,3.02,1.39,3.1,3.09h.02c.4,4.12.6,8.26.6,12.41h-.01c0,4.14-.18,8.32-.6,12.43" fill="none" stroke="#333333" stroke-width=".7"/>
            <text x="3" y="29" fill="#ffffff" font-size="6.25" text-anchor="start">S</text>
            <g transform="translate(18.406400000000005,2.6500000000000004) scale(0.3)" fill="none" stroke="#ff944d" stroke-width="2">
                <path d="m6.0006 9.9714v10c0 4 12 4 12 0v-10s0-4-6-4c-6 0-6 4-6 4z"/>
<path d="m11.656 6.8328s0-3 1-4 2-2-1-2" stroke-width="1.5"/>
            </g>
            <text x="25.703200000000002" y="9.25" fill="#ff944d" font-size="6.25" text-anchor="start">↓</text>
            <g transform="translate(3,6.25) scale(0.3)" fill="none" stroke="#66ff66" color="#66ff66" text-anchor="start" stroke-width="2">
                <path d="M12,7 L12,17 L7,13 L4,13 L4,11 L7,11 L12,7 Z" rx="1"/>
<path d="M15,9 C17,11 17,13 15,15" rx="0.5"/>
            </g>
        </g>
        <g transform="translate(142.0, 142.0)">
            <path d="M31.98,28.85c-.16,1.71-1.36,2.98-3.09,3.12-3.97.37-8.43.59-12.42.6h-.02c-4.13-.02-8.31-.2-12.42-.6h.03c-1.7-.16-2.99-1.36-3.11-3.09h-.01c-.37-3.97-.6-8.43-.59-12.42-.01-4.14.18-8.32.6-12.43v.03c.17-1.72,1.33-2.95,3.08-3.11h0c4.13-.4,8.28-.6,12.43-.6h0c4.13,0,8.31.19,12.42.6h-.03c1.68.12,3.02,1.39,3.1,3.09h.02c.4,4.12.6,8.26.6,12.41h-.01c0,4.14-.18,8.32-.6,12.43" fill="none" stroke="#333333" stroke-width=".7"/>
            <text x="3" y="29" fill="#ffffff" font-size="6.25" text-anchor="start">D</text>
            <g transform="translate(18.406400000000005,2.6500000000000004) scale(0.3)" fill="none" stroke="#ff944d" stroke-width="2">
                <path d="m6.0006 9.9714v10c0 4 12 4 12 0v-10s0-4-6-4c-6 0-6 4-6 4z"/>
<path d="m11.656 6.8328s0-3 1-4 2-2-1-2" stroke-width="1.5"/>
            </g>
            <text x="25.703200000000002" y="9.25" fill="#ff944d" font-size="6.25" text-anchor="start">→</text>
            <g transform="translate(3,6.25) scale(0.3)" fill="none" stroke="#66ff66" color="#66ff66" text-anchor="start" stroke-width="2">
                <path d="m18.8 6v12" stroke-linecap="round"/>
<path rx="1" d="m6.2286 6 9 6-9 6z" stroke-linejoin="round"/>
            </g>
        </g>
        <g transform="translate(184.0, 142.0)">
            <path d="M28.1,30.72c1.35-.18,2.39-1.24,2.57-2.58h0c1.4-7.96,1.43-16.19,0-24.16h0c-.17-1.32-1.21-2.38-2.55-2.55h.01c-3.98-.73-8.04-1.07-12.09-1.08h.02c-4.06-.02-8.13.34-12.12,1.08h.03c-1.33.18-2.4,1.22-2.55,2.57h0C-.01,11.96,0,20.19,1.41,28.16h0c.18,1.32,1.21,2.38,2.55,2.55h-.01c7.97,1.44,16.23,1.47,24.19,0" fill="none" stroke="#333333" stroke-width=".7"/>
            <text x="3" y="29" fill="#ffffff" font-size="6.25" text-anchor="start">F</text>
            <g transform="translate(21.3032,6.25) scale(0.3)" fill="none" stroke="#ff944d" color="#ff944d" text-anchor="start" stroke-width="2">
                <g transform="translate(-17.656,0)">
<path d="m6.0006 9.9714v10c0 4 12 4 12 0v-10s0-4-6-4c-6 0-6 4-6 4z"/>
<path d="m11.656 6.8328s0-3 1-4 2-2-1-2" stroke-width="1.5"/>
</g>
<g transform="translate(6,0)">
    <rect x="4" y="4" width="18" height="18" fill="none" stroke="currentColor"/>
    <rect x="4" y="14" width="8" height="8" fill="currentColor"/>
</g>
            </g>
        </g>
        <g transform="translate(226.0, 142.0)">
            <path d="M31.98,28.85c-.16,1.71-1.36,2.98-3.09,3.12-3.97.37-8.43.59-12.42.6h-.02c-4.13-.02-8.31-.2-12.42-.6h.03c-1.7-.16-2.99-1.36-3.11-3.09h-.01c-.37-3.97-.6-8.43-.59-12.42-.01-4.14.18-8.32.6-12.43v.03c.17-1.72,1.33-2.95,3.08-3.11h0c4.13-.4,8.28-.6,12.43-.6h0c4.13,0,8.31.19,12.42.6h-.03c1.68.12,3.02,1.39,3.1,3.09h.02c.4,4.12.6,8.26.6,12.41h-.01c0,4.14-.18,8.32-.6,12.43" fill="none" stroke="#333333" stroke-width=".7"/>
            <text x="3" y="29" fill="#ffffff" font-size="6.25" text-anchor="start">G</text>
            <g transform="translate(21.3032,6.25) scale(0.3)" fill="none" stroke="#ff944d" color="#ff944d" text-anchor="start" stroke-width="2">
                <g transform="translate(-17.656,0)">
<path d="m6.0006 9.9714v10c0 4 12 4 12 0v-10s0-4-6-4c-6 0-6 4-6 4z"/>
<path d="m11.656 6.8328s0-3 1-4 2-2-1-2" stroke-width="1.5"/>
</g>
<g transform="translate(6,0)">
    <rect x="4" y="4" width="18" height="18" fill="none" stroke="currentColor"/>
    <rect x="14" y="14" width="8" height="8" fill="currentColor"/>
</g>
            </g>
        </g>
        <g transform="translate(268.0, 142.0)">
            <path d="M31.98,28.85c-.16,1.71-1.36,2.98-3.09,3.12-3.97.37-8.43.59-12.42.6h-.02c-4.13-.02-8.31-.2-12.42-.6h.03c-1.7-.16-2.99-1.36-3.11-3.09h-.01c-.37-3.97-.6-8.43-.59-12.42-.01-4.14.18-8.32.6-12.43v.03c.17-1.72,1.33-2.95,3.08-3.11h0c4.13-.4,8.28-.6,12.43-.6h0c4.13,0,8.31.19,12.42.6h-.03c1.68.12,3.02,1.39,3.1,3.09h.02c.4,4.12.6,8.26.6,12.41h-.01c0,4.14-.18,8.32-.6,12.43" fill="none" stroke="#333333" stroke-width=".7"/>
            <text x="3" y="29" fill="#ffffff" font-size="6.25" text-anchor="start">H</text>
            <text x="29" y="9.25" fill="#ff944d" font-size="6.25" text-anchor="end">Insert</text>
        </g>
        <g transform="translate(310.0, 142.0)">
            <path d="M28.1,30.72c1.35-.18,2.39-1.24,2.57-2.58h0c1.4-7.96,1.43-16.19,0-24.16h0c-.17-1.32-1.21-2.38-2.55-2.55h.01c-3.98-.73-8.04-1.07-12.09-1.08h.02c-4.06-.02-8.13.34-12.12,1.08h.03c-1.33.18-2.4,1.22-2.55,2.57h0C-.01,11.96,0,20.19,1.41,28.16h0c.18,1.32,1.21,2.38,2.55,2.55h-.01c7.97,1.44,16.23,1.47,24.19,0" fill="none" stroke="#333333" stroke-width=".7"/>
            <text x="3" y="29" fill="#ffffff" font-size="6.25" text-anchor="start">J</text>
            <text x="29" y="9.25" fill="#ff944d" font-size="6.25" text-anchor="end">Del</text>
        </g>
        <g transform="translate(352.0, 142.0)">
            <path d="M31.98,28.85c-.16,1.71-1.36,2.98-3.09,3.12-3.97.37-8.43.59-12.42.6h-.02c-4.13-.02-8.31-.2-12.42-.6h.03c-1.7-.16-2.99-1.36-3.11-3.09h-.01c-.37-3.97-.6-8.43-.59-12.42-.01-4.14.18-8.32.6-12.43v.03c.17-1.72,1.33-2.95,3.08-3.11h0c4.13-.4,8.28-.6,12.43-.6h0c4.13,0,8.31.19,12.42.6h-.03c1.68.12,3.02,1.39,3.1,3.09h.02c.4,4.12.6,8.26.6,12.41h-.01c0,4.14-.18,8.32-.6,12.43" fill="none" stroke="#333333" stroke-width=".7"/>
            <text x="3" y="29" fill="#ffffff" font-size="6.25" text-anchor="start">K</text>
            <text x="29" y="9.25" fill="#ff944d" font-size="6.25" text-anchor="end">Bksp</text>
        </g>
        <g transform="translate(394.0, 142.0)">
            <path d="M31.98,28.85c-.16,1.71-1.36,2.98-3.09,3.12-3.97.37-8.43.59-12.42.6h-.02c-4.13-.02-8.31-.2-12.42-.6h.03c-1.7-.16-2.99-1.36-3.11-3.09h-.01c-.37-3.97-.6-8.43-.59-12.42-.01-4.14.18-8.32.6-12.43v.03c.17-1.72,1.33-2.95,3.08-3.11h0c4.13-.4,8.28-.6,12.43-.6h0c4.13,0,8.31.19,12.42.6h-.03c1.68.12,3.02,1.39,3.1,3.09h.02c.4,4.12.6,8.26.6,12.41h-.01c0,4.14-.18,8.32-.6,12.43" fill="none" stroke="#333333" stroke-width=".7"/>
            <text x="3" y="29" fill="#ffffff" font-size="6.25" text-anchor="start">L</text>
            <text x="29" y="9.25" fill="#ff944d" font-size="6.25" text-anchor="end">{</text>
        </g>
        <g transform="translate(436.0, 142.0)">
            <path d="M31.98,28.85c-.16,1.71-1.36,2.98-3.09,3.12-3.97.37-8.43.59-12.42.6h-.02c-4.13-.02-8.31-.2-12.42-.6h.03c-1.7-.16-2.99-1.36-3.11-3.09h-.01c-.37-3.97-.6-8.43-.59-12.42-.01-4.14.18-8.32.6-12.43v.03c.17-1.72,1.33-2.95,3.08-3.11h0c4.13-.4,8.28-.6,12.43-.6h0c4.13,0,8.31.19,12.42.6h-.03c1.68.12,3.02,1.39,3.1,3.09h.02c.4,4.12.6,8.26.6,12.41h-.01c0,4.14-.18,8.32-.6,12.43" fill="none" stroke="#333333" stroke-width=".7"/>
            <text x="3" y="29" fill="#ffffff" font-size="6.25" text-anchor="start">;</text>
            <text x="29" y="9.25" fill="#ff944d" font-size="6.25" text-anchor="end">}</text>
        </g>
        <g transform="translate(478.0, 142.0)">
            <path d="M31.98,28.85c-.16,1.71-1.36,2.98-3.09,3.12-3.97.37-8.43.59-12.42.6h-.02c-4.13-.02-8.31-.2-12.42-.6h.03c-1.7-.16-2.99-1.36-3.11-3.09h-.01c-.37-3.97-.6-8.43-.59-12.42-.01-4.14.18-8.32.6-12.43v.03c.17-1.72,1.33-2.95,3.08-3.11h0c4.13-.4,8.28-.6,12.43-.6h0c4.13,0,8.31.19,12.42.6h-.03c1.68.12,3.02,1.39,3.1,3.09h.02c.4,4.12.6,8.26.6,12.41h-.01c0,4.14-.18,8.32-.6,12.43" fill="none" stroke="#333333" stroke-width=".7"/>
            <text x="3" y="29" fill="#ffffff" font-size="6.25" text-anchor="start">'</text>
        </g>
        <g transform="translate(16.0, 184.0)">
            <path d="M31.98,28.85c-.16,1.71-1.36,2.98-3.09,3.12-3.97.37-8.43.59-12.42.6h-.02c-4.13-.02-8.31-.2-12.42-.6h.03c-1.7-.16-2.99-1.36-3.11-3.09h-.01c-.37-3.97-.6-8.43-.59-12.42-.01-4.14.18-8.32.6-12.43v.03c.17-1.72,1.33-2.95,3.08-3.11h0c4.13-.4,8.28-.6,12.43-.6h0c4.13,0,8.31.19,12.42.6h-.03c1.68.12,3.02,1.39,3.1,3.09h.02c.4,4.12.6,8.26.6,12.41h-.01c0,4.14-.18,8.32-.6,12.43" fill="none" stroke="#333333" stroke-width=".7"/>
            <text x="3" y="29" fill="#ffffff" font-size="6.25" text-anchor="start">Shift</text>
            <g transform="translate(3,6.25) scale(0.3)" fill="none" stroke="#66ff66" color="#66ff66" text-anchor="start" stroke-width="2">
                <rect x="6" y="8" width="8" height="8" rx="1"/>
<path d="M16,10 C18,12 18,12 16,14" stroke-width="1.5"/>
<path d="M18,8 C21,12 21,12 18,16" stroke-width="1.5"/>
            </g>
        </g>
        <g transform="translate(58.0, 184.0)">
            <path d="M31.98,28.85c-.16,1.71-1.36,2.98-3.09,3.12-3.97.37-8.43.59-12.42.6h-.02c-4.13-.02-8.31-.2-12.42-.6h.03c-1.7-.16-2.99-1.36-3.11-3.09h-.01c-.37-3.97-.6-8.43-.59-12.42-.01-4.14.18-8.32.6-12.43v.03c.17-1.72,1.33-2.95,3.08-3.11h0c4.13-.4,8.28-.6,12.43-.6h0c4.13,0,8.31.19,12.42.6h-.03c1.68.12,3.02,1.39,3.1,3.09h.02c.4,4.12.6,8.26.6,12.41h-.01c0,4.14-.18,8.32-.6,12.43" fill="none" stroke="#333333" stroke-width=".7"/>
            <text x="3" y="29" fill="#ffffff" font-size="6.25" text-anchor="start">Z</text>
            <g transform="translate(26.703200000000002,6.25) scale(0.3)" fill="none" stroke="#ff944d" color="#ff944d" text-anchor="start" stroke-width="2">
                <g transform="translate(-4,0)">
<path d="m6.0006 9.9714v10c0 4 12 4 12 0v-10s0-4-6-4c-6 0-6 4-6 4z"/>
<path d="m11.656 6.8328s0-3 1-4 2-2-1-2" stroke-width="1.5"/>
<rect x="8" y="8" width="1.5" height="5" fill="currentColor" opacity="1"/>
</g>
            </g>
        </g>
        <g transform="translate(100.0, 184.0)">
            <path d="M31.98,28.85c-.16,1.71-1.36,2.98-3.09,3.12-3.97.37-8.43.59-12.42.6h-.02c-4.13-.02-8.31-.2-12.42-.6h.03c-1.7-.16-2.99-1.36-3.11-3.09h-.01c-.37-3.97-.6-8.43-.59-12.42-.01-4.14.18-8.32.6-12.43v.03c.17-1.72,1.33-2.95,3.08-3.11h0c4.13-.4,8.28-.6,12.43-.6h0c4.13,0,8.31.19,12.42.6h-.03c1.68.12,3.02,1.39,3.1,3.09h.02c.4,4.12.6,8.26.6,12.41h-.01c0,4.14-.18,8.32-.6,12.43" fill="none" stroke="#333333" stroke-width=".7"/>
            <text x="3" y="29" fill="#ffffff" font-size="6.25" text-anchor="start">X</text>
            <g transform="translate(26.703200000000002,6.25) scale(0.3)" fill="none" stroke="#ff944d" color="#ff944d" text-anchor="start" stroke-width="2">
                <g transform="translate(-4,0)">
<path d="m6.0006 9.9714v10c0 4 12 4 12 0v-10s0-4-6-4c-6 0-6 4-6 4z"/>
<path d="m11.656 6.8328s0-3 1-4 2-2-1-2" stroke-width="1.5"/>
<rect x="11.25" y="8" width="1.5" height="5" fill="currentColor" opacity="1"/>
</g>
            </g>
            <g transform="translate(3,6.25) scale(0.3)" fill="none" stroke="#66ff66" color="#66ff66" text-anchor="start" stroke-width="2">
                <path d="M12,7 L12,17 L7,13 L4,13 L4,11 L7,11 L12,7 Z" rx="1"/>
<line x1="15" y1="9" x2="20" y2="15"/>
<line x1="20" y1="9" x2="15" y2="15"/>
            </g>
        </g>
        <g transform="translate(142.0, 184.0)">
            <path d="M31.98,28.85c-.16,1.71-1.36,2.98-3.09,3.12-3.97.37-8.43.59-12.42.6h-.02c-4.13-.02-8.31-.2-12.42-.6h.03c-1.7-.16-2.99-1.36-3.11-3.09h-.01c-.37-3.97-.6-8.43-.59-12.42-.01-4.14.18-8.32.6-12.43v.03c.17-1.72,1.33-2.95,3.08-3.11h0c4.13-.4,8.28-.6,12.43-.6h0c4.13,0,8.31.19,12.42.6h-.03c1.68.12,3.02,1.39,3.1,3.09h.02c.4,4.12.6,8.26.6,12.41h-.01c0,4.14-.18,8.32-.6,12.43" fill="none" stroke="#333333" stroke-width=".7"/>
            <text x="3" y="29" fill="#ffffff" font-size="6.25" text-anchor="start">C</text>
            <g transform="translate(26.703200000000002,6.25) scale(0.3)" fill="none" stroke="#ff944d" color="#ff944d" text-anchor="start" stroke-width="2">
                <g transform="translate(-4,0)">
<path d="m6.0006 9.9714v10c0 4 12 4 12 0v-10s0-4-6-4c-6 0-6 4-6 4z"/>
<path d="m11.656 6.8328s0-3 1-4 2-2-1-2" stroke-width="1.5"/>
<rect x="14.5" y="8" width="1.5" height="5" fill="currentColor" opacity="1"/>
</g>
            </g>
        </g>
        <g transform="translate(184.0, 184.0)">
            <path d="M31.98,28.85c-.16,1.71-1.36,2.98-3.09,3.12-3.97.37-8.43.59-12.42.6h-.02c-4.13-.02-8.31-.2-12.42-.6h.03c-1.7-.16-2.99-1.36-3.11-3.09h-.01c-.37-3.97-.6-8.43-.59-12.42-.01-4.14.18-8.32.6-12.43v.03c.17-1.72,1.33-2.95,3.08-3.11h0c4.13-.4,8.28-.6,12.43-.6h0c4.13,0,8.31.19,12.42.6h-.03c1.68.12,3.02,1.39,3.1,3.09h.02c.4,4.12.6,8.26.6,12.41h-.01c0,4.14-.18,8.32-.6,12.43" fill="none" stroke="#333333" stroke-width=".7"/>
            <text x="3" y="29" fill="#ffffff" font-size="6.25" text-anchor="start">V</text>
        </g>
        <g transform="translate(226.0, 184.0)">
            <path d="M31.98,28.85c-.16,1.71-1.36,2.98-3.09,3.12-3.97.37-8.43.59-12.42.6h-.02c-4.13-.02-8.31-.2-12.42-.6h.03c-1.7-.16-2.99-1.36-3.11-3.09h-.01c-.37-3.97-.6-8.43-.59-12.42-.01-4.14.18-8.32.6-12.43v.03c.17-1.72,1.33-2.95,3.08-3.11h0c4.13-.4,8.28-.6,12.43-.6h0c4.13,0,8.31.19,12.42.6h-.03c1.68.12,3.02,1.39,3.1,3.09h.02c.4,4.12.6,8.26.6,12.41h-.01c0,4.14-.18,8.32-.6,12.43" fill="none" stroke="#333333" stroke-width=".7"/>
            <text x="3" y="29" fill="#ffffff" font-size="6.25" text-anchor="start">B</text>
            <g transform="translate(21.3032,6.25) scale(0.3)" fill="none" stroke="#ff944d" color="#ff944d" text-anchor="start" stroke-width="2">
                <g transform="translate(-17.656,0)">
<path d="m6.0006 9.9714v10c0 4 12 4 12 0v-10s0-4-6-4c-6 0-6 4-6 4z"/>
<path d="m11.656 6.8328s0-3 1-4 2-2-1-2" stroke-width="1.5"/>
</g>
<g transform="translate(6,0)">
    <rect x="4" y="4" width="18" height="18" fill="none" stroke="currentColor"/>
</g>
            </g>
        </g>
        <g transform="translate(268.0, 184.0)">
            <path d="M31.98,28.85c-.16,1.71-1.36,2.98-3.09,3.12-3.97.37-8.43.59-12.42.6h-.02c-4.13-.02-8.31-.2-12.42-.6h.03c-1.7-.16-2.99-1.36-3.11-3.09h-.01c-.37-3.97-.6-8.43-.59-12.42-.01-4.14.18-8.32.6-12.43v.03c.17-1.72,1.33-2.95,3.08-3.11h0c4.13-.4,8.28-.6,12.43-.6h0c4.13,0,8.31.19,12.42.6h-.03c1.68.12,3.02,1.39,3.1,3.09h.02c.4,4.12.6,8.26.6,12.41h-.01c0,4.14-.18,8.32-.6,12.43" fill="none" stroke="#333333" stroke-width=".7"/>
            <text x="3" y="29" fill="#ffffff" font-size="6.25" text-anchor="start">N</text>
        </g>
        <g transform="translate(310.0, 184.0)">
            <path d="M31.98,28.85c-.16,1.71-1.36,2.98-3.09,3.12-3.97.37-8.43.59-12.42.6h-.02c-4.13-.02-8.31-.2-12.42-.6h.03c-1.7-.16-2.99-1.36-3.11-3.09h-.01c-.37-3.97-.6-8.43-.59-12.42-.01-4.14.18-8.32.6-12.43v.03c.17-1.72,1.33-2.95,3.08-3.11h0c4.13-.4,8.28-.6,12.43-.6h0c4.13,0,8.31.19,12.42.6h-.03c1.68.12,3.02,1.39,3.1,3.09h.02c.4,4.12.6,8.26.6,12.41h-.01c0,4.14-.18,8.32-.6,12.43" fill="none" stroke="#333333" stroke-width=".7"/>
            <text x="3" y="29" fill="#ffffff" font-size="6.25" text-anchor="start">M</text>
        </g>
        <g transform="translate(352.0, 184.0)">
            <path d="M31.98,28.85c-.16,1.71-1.36,2.98-3.09,3.12-3.97.37-8.43.59-12.42.6h-.02c-4.13-.02-8.31-.2-12.42-.6h.03c-1.7-.16-2.99-1.36-3.11-3.09h-.01c-.37-3.97-.6-8.43-.59-12.42-.01-4.14.18-8.32.6-12.43v.03c.17-1.72,1.33-2.95,3.08-3.11h0c4.13-.4,8.28-.6,12.43-.6h0c4.13,0,8.31.19,12.42.6h-.03c1.68.12,3.02,1.39,3.1,3.09h.02c.4,4.12.6,8.26.6,12.41h-.01c0,4.14-.18,8.32-.6,12.43" fill="none" stroke="#333333" stroke-width=".7"/>
            <text x="3" y="29" fill="#ffffff" font-size="6.25" text-anchor="start">,</text>
            <text x="29" y="9.25" fill="#ff944d" font-size="6.25" text-anchor="end">KeypadMultiply</text>
        </g>
        <g transform="translate(394.0, 184.0)">
            <path d="M31.98,28.85c-.16,1.71-1.36,2.98-3.09,3.12-3.97.37-8.43.59-12.42.6h-.02c-4.13-.02-8.31-.2-12.42-.6h.03c-1.7-.16-2.99-1.36-3.11-3.09h-.01c-.37-3.97-.6-8.43-.59-12.42-.01-4.14.18-8.32.6-12.43v.03c.17-1.72,1.33-2.95,3.08-3.11h0c4.13-.4,8.28-.6,12.43-.6h0c4.13,0,8.31.19,12.42.6h-.03c1.68.12,3.02,1.39,3.1,3.09h.02c.4,4.12.6,8.26.6,12.41h-.01c0,4.14-.18,8.32-.6,12.43" fill="none" stroke="#333333" stroke-width=".7"/>
            <text x="3" y="29" fill="#ffffff" font-size="6.25" text-anchor="start">.</text>
            <text x="29" y="9.25" fill="#ff944d" font-size="6.25" text-anchor="end">KeypadAdd</text>
        </g>
        <g transform="translate(436.0, 184.0)">
            <path d="M31.98,28.85c-.16,1.71-1.36,2.98-3.09,3.12-3.97.37-8.43.59-12.42.6h-.02c-4.13-.02-8.31-.2-12.42-.6h.03c-1.7-.16-2.99-1.36-3.11-3.09h-.01c-.37-3.97-.6-8.43-.59-12.42-.01-4.14.18-8.32.6-12.43v.03c.17-1.72,1.33-2.95,3.08-3.11h0c4.13-.4,8.28-.6,12.43-.6h0c4.13,0,8.31.19,12.42.6h-.03c1.68.12,3.02,1.39,3.1,3.09h.02c.4,4.12.6,8.26.6,12.41h-.01c0,4.14-.18,8.32-.6,12.43" fill="none" stroke="#333333" stroke-width=".7"/>
            <text x="3" y="29" fill="#ffffff" font-size="6.25" text-anchor="start">/</text>
            <text x="29" y="9.25" fill="#ff944d" font-size="6.25" text-anchor="end">\</text>
        </g>
        <g transform="translate(478.0, 184.0)">
            <path d="M31.98,28.85c-.16,1.71-1.36,2.98-3.09,3.12-3.97.37-8.43.59-12.42.6h-.02c-4.13-.02-8.31-.2-12.42-.6h.03c-1.7-.16-2.99-1.36-3.11-3.09h-.01c-.37-3.97-.6-8.43-.59-12.42-.01-4.14.18-8.32.6-12.43v.03c.17-1.72,1.33-2.95,3.08-3.11h0c4.13-.4,8.28-.6,12.43-.6h0c4.13,0,8.31.19,12.42.6h-.03c1.68.12,3.02,1.39,3.1,3.09h.02c.4,4.12.6,8.26.6,12.41h-.01c0,4.14-.18,8.32-.6,12.43" fill="none" stroke="#333333" stroke-width=".7"/>
            <text x="3" y="29" fill="#ffffff" font-size="6.25" text-anchor="start">Enter</text>
            <text x="29" y="9.25" fill="#ff944d" font-size="6.25" text-anchor="end">|</text>
        </g>
        <g transform="translate(16.0, 226.0)">
            <path d="M31.98,28.85c-.16,1.71-1.36,2.98-3.09,3.12-3.97.37-8.43.59-12.42.6h-.02c-4.13-.02-8.31-.2-12.42-.6h.03c-1.7-.16-2.99-1.36-3.11-3.09h-.01c-.37-3.97-.6-8.43-.59-12.42-.01-4.14.18-8.32.6-12.43v.03c.17-1.72,1.33-2.95,3.08-3.11h0c4.13-.4,8.28-.6,12.43-.6h0c4.13,0,8.31.19,12.42.6h-.03c1.68.12,3.02,1.39,3.1,3.09h.02c.4,4.12.6,8.26.6,12.41h-.01c0,4.14-.18,8.32-.6,12.43" fill="none" stroke="#333333" stroke-width=".7"/>
            <text x="3" y="29" fill="#ffffff" font-size="6.25" text-anchor="start">Ctrl</text>
            <text x="3" y="9.25" fill="#66ff66" font-size="6.25" text-anchor="start">BATTERY_LEVEL)</text>
        </g>
        <g transform="translate(58.0, 226.0)">
            <path d="M31.98,28.85c-.16,1.71-1.36,2.98-3.09,3.12-3.97.37-8.43.59-12.42.6h-.02c-4.13-.02-8.31-.2-12.42-.6h.03c-1.7-.16-2.99-1.36-3.11-3.09h-.01c-.37-3.97-.6-8.43-.59-12.42-.01-4.14.18-8.32.6-12.43v.03c.17-1.72,1.33-2.95,3.08-3.11h0c4.13-.4,8.28-.6,12.43-.6h0c4.13,0,8.31.19,12.42.6h-.03c1.68.12,3.02,1.39,3.1,3.09h.02c.4,4.12.6,8.26.6,12.41h-.01c0,4.14-.18,8.32-.6,12.43" fill="none" stroke="#333333" stroke-width=".7"/>
            <text x="3" y="29" fill="#ffffff" font-size="6.25" text-anchor="start">AltGr</text>
        </g>
        <g transform="translate(100.0, 226.0)">
            <path d="M31.98,28.85c-.16,1.71-1.36,2.98-3.09,3.12-3.97.37-8.43.59-12.42.6h-.02c-4.13-.02-8.31-.2-12.42-.6h.03c-1.7-.16-2.99-1.36-3.11-3.09h-.01c-.37-3.97-.6-8.43-.59-12.42-.01-4.14.18-8.32.6-12.43v.03c.17-1.72,1.33-2.95,3.08-3.11h0c4.13-.4,8.28-.6,12.43-.6h0c4.13,0,8.31.19,12.42.6h-.03c1.68.12,3.02,1.39,3.1,3.09h.02c.4,4.12.6,8.26.6,12.41h-.01c0,4.14-.18,8.32-.6,12.43" fill="none" stroke="#333333" stroke-width=".7"/>
            <text x="3" y="29" fill="#ffffff" font-size="6.25" text-anchor="start">Alt</text>
            <text x="29" y="9.25" fill="#ff944d" font-size="6.25" text-anchor="end">AltGr</text>
        </g>
        <g transform="translate(142.0, 226.0)">
            <path d="M31.98,28.85c-.16,1.71-1.36,2.98-3.09,3.12-3.97.37-8.43.59-12.42.6h-.02c-4.13-.02-8.31-.2-12.42-.6h.03c-1.7-.16-2.99-1.36-3.11-3.09h-.01c-.37-3.97-.6-8.43-.59-12.42-.01-4.14.18-8.32.6-12.43v.03c.17-1.72,1.33-2.95,3.08-3.11h0c4.13-.4,8.28-.6,12.43-.6h0c4.13,0,8.31.19,12.42.6h-.03c1.68.12,3.02,1.39,3.1,3.09h.02c.4,4.12.6,8.26.6,12.41h-.01c0,4.14-.18,8.32-.6,12.43" fill="none" stroke="#333333" stroke-width=".7"/>
            <text x="3" y="29" fill="#ffffff" font-size="6.25" text-anchor="start">Cmd</text>
        </g>
        <g transform="translate(184.0, 226.0)">
            <path d="M31.98,28.85c-.16,1.71-1.36,2.98-3.09,3.12-3.97.37-8.43.59-12.42.6h-.02c-4.13-.02-8.31-.2-12.42-.6h.03c-1.7-.16-2.99-1.36-3.11-3.09h-.01c-.37-3.97-.6-8.43-.59-12.42-.01-4.14.18-8.32.6-12.43v.03c.17-1.72,1.33-2.95,3.08-3.11h0c4.13-.4,8.28-.6,12.43-.6h0c4.13,0,8.31.19,12.42.6h-.03c1.68.12,3.02,1.39,3.1,3.09h.02c.4,4.12.6,8.26.6,12.41h-.01c0,4.14-.18,8.32-.6,12.43" fill="none" stroke="#333333" stroke-width=".7"/>
            <text x="3" y="29" fill="#66ff66" font-size="6.25" text-anchor="start">Fun</text>
        </g>
        <g transform="translate(220, 226.0)">
                <path d="M85.31.35H1.12h0c-.68-.04-.8.45-.78,1.04.71,10.07.76,20.54,0,30.61,0,.35-.02.71.15,1.01.15.18.39.24.63.22h0c.62-.21,84.4.4,84.81-.21.12-.23.17-.5.16-.78-.3-4.31-.51-9.43-.55-13.76-.04-5.49.17-11.62.55-17.1,0-.29-.03-.59-.17-.82-.16-.17-.38-.22-.63-.21" fill="none" stroke="#333333" stroke-width=".7"/>
                <text x="3" y="29" fill="#ffffff" font-size="6.25" text-anchor="bottom" >Space</text>
                <text x="83.41" y="29" fill="#66b3ff" font-size="6.25" text-anchor="end">Bksp</text>
            </g>
        <g transform="translate(310.0, 226.0)">
            <path d="M31.98,28.85c-.16,1.71-1.36,2.98-3.09,3.12-3.97.37-8.43.59-12.42.6h-.02c-4.13-.02-8.31-.2-12.42-.6h.03c-1.7-.16-2.99-1.36-3.11-3.09h-.01c-.37-3.97-.6-8.43-.59-12.42-.01-4.14.18-8.32.6-12.43v.03c.17-1.72,1.33-2.95,3.08-3.11h0c4.13-.4,8.28-.6,12.43-.6h0c4.13,0,8.31.19,12.42.6h-.03c1.68.12,3.02,1.39,3.1,3.09h.02c.4,4.12.6,8.26.6,12.41h-.01c0,4.14-.18,8.32-.6,12.43" fill="none" stroke="#333333" stroke-width=".7"/>
            <text x="3" y="29" fill="#ff944d" font-size="6.25" text-anchor="start">Raise</text>
        </g>
        <g transform="translate(352.0, 226.0)">
            <path d="M31.98,28.85c-.16,1.71-1.36,2.98-3.09,3.12-3.97.37-8.43.59-12.42.6h-.02c-4.13-.02-8.31-.2-12.42-.6h.03c-1.7-.16-2.99-1.36-3.11-3.09h-.01c-.37-3.97-.6-8.43-.59-12.42-.01-4.14.18-8.32.6-12.43v.03c.17-1.72,1.33-2.95,3.08-3.11h0c4.13-.4,8.28-.6,12.43-.6h0c4.13,0,8.31.19,12.42.6h-.03c1.68.12,3.02,1.39,3.1,3.09h.02c.4,4.12.6,8.26.6,12.41h-.01c0,4.14-.18,8.32-.6,12.43" fill="none" stroke="#333333" stroke-width=".7"/>
            <text x="3" y="29" fill="#ffffff" font-size="6.25" text-anchor="start">←</text>
            <text x="29" y="9.25" fill="#ff944d" font-size="6.25" text-anchor="end">Home</text>
        </g>
        <g transform="translate(394.0, 226.0)">
            <path d="M31.98,28.85c-.16,1.71-1.36,2.98-3.09,3.12-3.97.37-8.43.59-12.42.6h-.02c-4.13-.02-8.31-.2-12.42-.6h.03c-1.7-.16-2.99-1.36-3.11-3.09h-.01c-.37-3.97-.6-8.43-.59-12.42-.01-4.14.18-8.32.6-12.43v.03c.17-1.72,1.33-2.95,3.08-3.11h0c4.13-.4,8.28-.6,12.43-.6h0c4.13,0,8.31.19,12.42.6h-.03c1.68.12,3.02,1.39,3.1,3.09h.02c.4,4.12.6,8.26.6,12.41h-.01c0,4.14-.18,8.32-.6,12.43" fill="none" stroke="#333333" stroke-width=".7"/>
            <text x="3" y="29" fill="#ffffff" font-size="6.25" text-anchor="start">↑</text>
            <text x="29" y="9.25" fill="#ff944d" font-size="6.25" text-anchor="end">PageUp</text>
        </g>
        <g transform="translate(436.0, 226.0)">
            <path d="M31.98,28.85c-.16,1.71-1.36,2.98-3.09,3.12-3.97.37-8.43.59-12.42.6h-.02c-4.13-.02-8.31-.2-12.42-.6h.03c-1.7-.16-2.99-1.36-3.11-3.09h-.01c-.37-3.97-.6-8.43-.59-12.42-.01-4.14.18-8.32.6-12.43v.03c.17-1.72,1.33-2.95,3.08-3.11h0c4.13-.4,8.28-.6,12.43-.6h0c4.13,0,8.31.19,12.42.6h-.03c1.68.12,3.02,1.39,3.1,3.09h.02c.4,4.12.6,8.26.6,12.41h-.01c0,4.14-.18,8.32-.6,12.43" fill="none" stroke="#333333" stroke-width=".7"/>
            <text x="3" y="29" fill="#ffffff" font-size="6.25" text-anchor="start">↓</text>
            <text x="29" y="9.25" fill="#ff944d" font-size="6.25" text-anchor="end">PageDown</text>
        </g>
        <g transform="translate(478.0, 226.0)">
            <path d="M31.98,28.85c-.16,1.71-1.36,2.98-3.09,3.12-3.97.37-8.43.59-12.42.6h-.02c-4.13-.02-8.31-.2-12.42-.6h.03c-1.7-.16-2.99-1.36-3.11-3.09h-.01c-.37-3.97-.6-8.43-.59-12.42-.01-4.14.18-8.32.6-12.43v.03c.17-1.72,1.33-2.95,3.08-3.11h0c4.13-.4,8.28-.6,12.43-.6h0c4.13,0,8.31.19,12.42.6h-.03c1.68.12,3.02,1.39,3.1,3.09h.02c.4,4.12.6,8.26.6,12.41h-.01c0,4.14-.18,8.32-.6,12.43" fill="none" stroke="#333333" stroke-width=".7"/>
            <text x="3" y="29" fill="#ffffff" font-size="6.25" text-anchor="start">→</text>
            <text x="29" y="9.25" fill="#ff944d" font-size="6.25" text-anchor="end">End</text>
        </g>
</g></g></svg>